{"title":"Chillerama.2011.BRRip.XViD.AC3-5.1.SeT-CM8","uid":6870407,"size":1920888911,"categoryP":"video","categoryS":"movies","magnet":"?xt=urn:btih:dff93a7d4f6530ae82fff992b7c3892887941776&amp;dn=Chillerama.2011.BRRip.XViD.AC3-5.1.SeT-CM8&amp;tr=udp%3A%2F%2Ftracker.openbittorrent.com%3A80&amp;tr=udp%3A%2F%2Fopen.demonii.com%3A1337&amp;tr=udp%3A%2F%2Ftracker.coppersurfer.tk%3A6969&amp;tr=udp%3A%2F%2Fexodus.desync.com%3A6969","seeders":0,"leechers":0,"uploader":"sceneline","files":132,"time":1323218561,"description":"- &lt;a href=&quot;\nhttp://www.Speed.Cd&quot; rel=&quot;nofollow&quot; target=&quot;_NEW&quot;&gt;\nhttp://www.Speed.Cd&lt;/a&gt;      fast  and The Hottest Private Tracker on the net\n\n   signup is open now\n\nPlease Seed back to make the speed Faster!!!\n\n------------------nfo--------------------------\n-\n\n[size=5][color=blue]Chillerama.2011.BRRip.XViD.AC3-5.1.SeT-CM8[/color][/size]\n\nCM8 Doing It Right The First Time :D\n\n[size=4][color=blue]It's the closing night at the last drive-in theater in America and Cecil B. Kaufman has planned the ultimate marathon \nof lost film prints to unleash upon his faithful cinephile patrons. Four films so rare that they have never been exhibited \npublicly on American soil until this very night! With titles like Wadzilla, I Was A Teenage Werebear, The Diary of Anne \nFrankenstein, and Zom-B-Movie, Chillerama not only celebrates the golden age of drive-in B horror shlock but also spans over \nfour decades of cinema with something for every bad taste.[/color][/size]\n\n\n[url]http://www.imdb.com/title/tt1727252/[/url]\n\n\n\nSource                           : Chillerama.2011.720p.BluRay.x264-UNTOUCHABLES  Thank you\nFormat                           : AVI\nFormat/Info                      : Audio Video Interleave\nFile size                        : 1.78 GiB\nDuration                         : 1h 59mn\nOverall bit rate                 : 2 129 Kbps\nWriting application              : Lavf51.12.1\nWriting library                  : VirtualDub build 30091/release\n\nVideo\nFormat                           : xvid\nCodec ID                         : xvid\nDuration                         : 1h 59mn\nBit rate                         : 1 799 Kbps\nWidth                            : 720 pixels\nHeight                           : 404 pixels\nDisplay aspect ratio             : 16:9\nFrame rate                       : 23.976 fps\nBits/(Pixel*Frame)               : 0.258\nStream size                      : 1.51 GiB (85%)\n\nAudio\nID                               : 1\nFormat                           : AC-3\nFormat/Info                      : Audio Coding 3\nFormat_Settings_ModeExtension    : CM (complete main)\nCodec ID                         : 2000\nDuration                         : 1h 59mn\nBit rate mode                    : Constant\nBit rate                         : 320 Kbps\nChannel(s)                       : 6 channels\nChannel positions                : Front: L C R, Side: L R, LFE\nSampling rate                    : 48.0 KHz\nResolution                       : 16 bits\nStream size                      : 274 MiB (15%)\nAlignment                        : Split accross interleaves\nInterleave, duration             : 42 ms (1.00 video frame)\nInterleave, preload duration     : 500 ms\n\n\n\n\nNot to much to say, Did the usual stuff, Large size because its a two hour movie.\nbeen looking forward to this very funny movie, Was going to up this last week, but got side tracked so enjoy :)\n\nbig shout out to my Homies Mr Hive , Sir Unevano, Super TED , Mr Simmo and Welcome back Pinny :)\nGreets to SAiNTS,DTRG,SANTi,BDK, THC,SAFC, SiC, AMIABLE and mSD \n\n all the other Ledgends out there Past and Present..","torrent":{"xt":"urn:btih:dff93a7d4f6530ae82fff992b7c3892887941776","amp;dn":"Chillerama.2011.BRRip.XViD.AC3-5.1.SeT-CM8","amp;tr":["udp%3A%2F%2Ftracker.openbittorrent.com%3A80","udp%3A%2F%2Fopen.demonii.com%3A1337","udp%3A%2F%2Ftracker.coppersurfer.tk%3A6969","udp%3A%2F%2Fexodus.desync.com%3A6969"],"infoHash":"dff93a7d4f6530ae82fff992b7c3892887941776","infoHashBuffer":{"type":"Buffer","data":[223,249,58,125,79,101,48,174,130,255,249,146,183,195,137,40,135,148,23,118]},"announce":[],"urlList":[]}}